<svg xmlns="http://www.w3.org/2000/svg" viewBox="0 0 20 19" width="20" height="19">
	<style>
		tspan { white-space:pre }
		.shp0 { fill: #c6cacc } 
	</style>
	<g id="team">
		<g id="team 3">
			<g id="social icons">
				<path id="Shape 11" class="shp0" d="M10.6 9.22L10.6 9.19C10.6 9.2 10.59 9.21 10.59 9.22L10.6 9.22ZM16.82 2L3.18 2C2.53 2 2 2.51 2 3.15L2 16.85C2 17.49 2.53 18 3.18 18L16.82 18C17.47 18 18 17.49 18 16.85L18 3.15C18 2.51 17.47 2 16.82 2ZM6.85 15.39L4.43 15.39L4.43 8.17L6.85 8.17L6.85 15.39ZM5.64 7.18L5.63 7.18C4.81 7.18 4.29 6.63 4.29 5.93C4.29 5.23 4.83 4.69 5.66 4.69C6.48 4.69 6.99 5.23 7.01 5.93C7.01 6.63 6.48 7.18 5.64 7.18ZM15.56 15.39L13.15 15.39L13.15 11.53C13.15 10.56 12.8 9.89 11.92 9.89C11.26 9.89 10.86 10.34 10.68 10.77C10.62 10.93 10.6 11.14 10.6 11.36L10.6 15.39L8.19 15.39C8.19 15.39 8.22 8.85 8.19 8.17L10.6 8.17L10.6 9.19C10.93 8.7 11.5 8 12.78 8C14.37 8 15.56 9.03 15.56 11.25L15.56 15.39Z" />
			</g>
		</g>
	</g>
</svg>