<svg xmlns="http://www.w3.org/2000/svg" viewBox="0 0 23 17" width="23" height="17">
	<style>
		tspan { white-space:pre }
		.shp0 { fill: #c6cacc } 
	</style>
	<g id="team">
		<g id="team 3">
			<g id="social icons">
				<path id="Shape 3" class="shp0" d="M17 4.28C16.99 4.28 16.97 4.26 16.96 4.25C16.21 3.59 15.33 3.27 14.32 3.31L14.29 3.24C14.3 3.24 14.3 3.24 14.31 3.24C15.23 3.04 15.77 2.83 15.93 2.61C15.99 2.43 15.92 2.33 15.72 2.31C15.26 2.37 14.83 2.46 14.45 2.6C14.93 2.31 15.12 2.11 15.02 2C14.54 2.01 14.03 2.24 13.49 2.69C13.69 2.37 13.77 2.2 13.72 2.17C13.46 2.33 13.24 2.51 13.04 2.7C12.64 3.13 12.32 3.53 12.07 3.89L12.05 3.92C11.41 4.9 10.96 5.89 10.69 6.9L10.59 6.97L10.58 6.99C10.19 6.53 9.73 6.15 9.17 5.84C8.52 5.44 7.75 5.05 6.87 4.68C5.9 4.21 4.92 3.82 3.93 3.52C3.92 4.57 4.47 5.4 5.55 6.01L5.55 6.03C5.16 6.02 4.8 6.07 4.44 6.18C4.51 7.15 5.24 7.82 6.62 8.19L6.62 8.21C6.07 8.18 5.63 8.36 5.28 8.73C5.73 9.57 6.54 9.97 7.7 9.94C7.47 10.05 7.29 10.17 7.17 10.31C6.96 10.52 6.89 10.77 6.96 11.05C7.21 11.48 7.66 11.68 8.32 11.65L8.32 11.65L8.36 11.69C8.35 11.7 8.34 11.7 8.34 11.71C7.2 12.82 5.82 13.32 4.2 13.22L4.18 13.23C3.19 13.22 2.14 12.78 1 11.89C2.15 13.45 3.67 14.57 5.55 15.28C7.71 15.95 9.87 16 12.02 15.42L12.05 15.42C14.14 14.86 15.91 13.69 17.37 11.92C18.04 10.99 18.47 10.11 18.64 9.26C19.73 9.3 20.51 9 21 8.37L20.99 8.35C20.63 8.47 19.92 8.44 18.86 8.23L18.86 8.12C18.86 8.12 18.86 8.12 18.87 8.12C20.02 8 20.7 7.65 20.92 7.06C20.11 7.36 19.32 7.37 18.54 7.09C18.39 6.06 17.88 5.13 17 4.28Z" />
			</g>
		</g>
	</g>
</svg>